<svg width="31.000000" height="12.000000" viewBox="0 0 31 12" fill="none" xmlns="http://www.w3.org/2000/svg" xmlns:xlink="http://www.w3.org/1999/xlink">
	<desc>
			Created with Pixso.
	</desc>
	<defs>
		<clipPath id="clip1_123">
			<rect width="31.000000" height="12.000000" fill="white" fill-opacity="0"/>
		</clipPath>
	</defs>
	<rect width="31.000000" height="12.000000" fill="#FFFFFF" fill-opacity="0"/>
	<g clip-path="url(#clip1_123)">
		<path d="M0 6.33081C0 2.67822 2.66057 0.340332 5.67553 0.340332C8.80342 0.340332 11.1727 2.67822 11.1727 6.15283C11.1727 9.77319 8.64219 11.9973 5.46602 11.9973C2.38642 11.9973 0 9.70801 0 6.33081L0 6.33081ZM8.81899 6.33081C8.81899 3.16528 7.51285 1.37964 5.49795 1.37964C3.72449 1.37964 2.3537 2.85645 2.3537 6.02246C2.3537 9.15576 3.74085 10.9583 5.6911 10.9583C7.544 10.9583 8.81899 9.41553 8.81899 6.33081Z" fill="#000000" fill-opacity="1.000000" fill-rule="nonzero"/>
		<path d="M12.2693 11.2014L12.7047 11.104C13.0941 11.0256 13.3496 10.8767 13.3496 10.3738L13.3496 2.01245L12.2693 1.39526L12.2693 0.941162L15.1067 0L15.3162 0L15.3162 10.3738C15.3162 10.8931 15.6067 11.0554 15.993 11.1362L16.3637 11.2014L16.3637 11.8352L12.2693 11.8352L12.2693 11.2014ZM15.4938 7.61401L17.3957 5.73169C18.0406 5.08228 17.9604 4.62817 17.2672 4.49805L16.7508 4.40063L16.7508 3.76782L20.7331 3.76782L20.7331 4.40063L20.3172 4.48389C19.8554 4.56421 19.4315 4.79224 19.1084 5.13403L17.2991 6.91528L20.8943 11.2993L20.7495 11.8838L18.7829 11.8838L15.4938 7.61401Z" fill="#000000" fill-opacity="1.000000" fill-rule="nonzero"/>
		<path d="M22.6031 9.35156L22.6031 5.4707C22.6031 4.98364 22.41 4.78931 21.9427 4.72412L21.4426 4.64575L21.4426 4.06055L24.1834 3.54297L24.5729 3.54297L24.5729 8.85181C24.5729 10.2158 25.3143 10.5076 26.0527 10.5076C26.6574 10.502 27.2488 10.3279 27.7615 10.0049L27.7615 5.4707C27.7615 4.98364 27.5683 4.77271 27.0847 4.72412L26.5527 4.64575L26.5527 4.06055L29.3426 3.54297L29.7452 3.54297L29.7452 10.1467C29.7452 10.5522 29.9548 10.7476 30.4548 10.8125L31 10.8613L31 11.4644L28.2428 12L27.8721 12L27.8721 10.3743C27.2755 11.2502 26.2116 11.9978 24.9903 11.9978C23.8127 11.9978 22.6031 11.1694 22.6031 9.35156Z" fill="#000000" fill-opacity="1.000000" fill-rule="nonzero"/>
	</g>
</svg>
